<svg width="67" height="61" viewBox="0 0 67 61" fill="none" xmlns="http://www.w3.org/2000/svg">
<path d="M6.53255 30.6952L33.5001 10.5896L43.9688 12.4928C44.6946 12.6148 45.3367 13.0052 45.7275 13.542L49.9709 19.2028C50.7246 20.2032 50.5292 21.5452 49.5242 22.3504L21.1051 44.8716C20.2955 45.506 19.123 45.6768 18.118 45.2864L6.33713 40.7724C5.19255 40.3332 4.52255 39.284 4.69005 38.2104L5.6113 32.2324C5.69505 31.6468 6.03005 31.0856 6.56047 30.6952H6.53255Z" stroke="white" stroke-miterlimit="10"/>
<path d="M10.0498 33.2084L14.1536 34.1356C15.3819 34.404 16.2473 35.38 16.2473 36.5024V40.0404V35.8192C16.2473 35.0628 16.6661 34.3308 17.3361 33.8672L22.9752 30.134" stroke="white" stroke-miterlimit="10"/>
<path d="M27.833 25.6688L45.0855 12.7124" stroke="white" stroke-miterlimit="10"/>
<path d="M29.2285 40.992L44.9735 49.6296C45.8669 50.1176 46.9835 50.1176 47.9048 49.6296L59.6577 43.432C60.7464 42.8708 61.2489 41.7484 60.9139 40.6748L59.4344 36.0632C59.2389 35.4288 58.7643 34.9164 58.0943 34.5992L45.0852 28.2552" stroke="white" stroke-miterlimit="10"/>
<path d="M40.5073 36.0388L44.7227 38.6008C45.4765 39.0644 45.9232 39.7964 45.9232 40.6016V44.5056V41.0896C45.9232 40.0404 46.6769 39.1132 47.8215 38.7716L52.3719 37.454" stroke="white" stroke-miterlimit="10"/>
</svg>
