<svg width="63" height="65" viewBox="0 0 63 65" fill="none" xmlns="http://www.w3.org/2000/svg">
<path d="M9.21398 22.334L14.8052 25.532L29.7677 15.652V8.762L9.21398 22.334ZM42.5252 49.348H20.6065L15.094 56.238H48.0377L42.5252 49.348ZM53.9965 27.014L48.4315 30.186L45.4915 47.346L50.899 54.132L55.6765 26.286L55.729 26.026L53.9965 27.014ZM52.9465 23.53L54.4427 22.672L33.3115 8.762V15.652L48.8252 25.896L52.9465 23.53ZM14.6215 29.484L7.27148 25.298L13.099 53.014L18.244 46.592L14.6215 29.484Z" fill="white"/>
<path d="M45.5961 28.418L42.3673 47.008H21.3673L17.4561 28.418L31.5261 19.162L45.5961 28.418Z" fill="white"/>
</svg>
