<svg width="38" height="38" viewBox="0 0 38 38" fill="none" xmlns="http://www.w3.org/2000/svg">
<path d="M18.9996 1.89978C25.8302 1.89978 29.2457 1.90015 31.7057 3.52771C32.8041 4.25452 33.7455 5.19492 34.4723 6.29333C36.1 8.75329 36.1002 12.1689 36.1002 18.9994C36.1002 25.8298 36.0998 29.2455 34.4723 31.7054C33.7454 32.804 32.8042 33.7452 31.7057 34.472C29.2457 36.0995 25.8301 36.1 18.9996 36.1C12.1691 36.1 8.75353 36.0997 6.29358 34.472C5.19516 33.7452 4.25476 32.8039 3.52795 31.7054C1.9004 29.2455 1.90002 25.8299 1.90002 18.9994C1.90002 12.1689 1.90027 8.75329 3.52795 6.29333C4.25471 5.19506 5.1953 4.25447 6.29358 3.52771C8.75353 1.90003 12.1691 1.89978 18.9996 1.89978ZM19.0006 10.1478C14.1113 10.1478 10.1471 14.1111 10.1471 19.0004C10.1471 23.8897 14.1113 27.8529 19.0006 27.8529C23.8898 27.8528 27.8531 23.8896 27.8531 19.0004C27.8531 14.1111 23.8898 10.1479 19.0006 10.1478ZM19.0006 13.1429C22.2356 13.1431 24.858 15.7653 24.858 19.0004C24.858 22.2354 22.2356 24.8577 19.0006 24.8578C15.7655 24.8578 13.1432 22.2355 13.1432 19.0004C13.1432 15.7652 15.7655 13.1429 19.0006 13.1429ZM28.2028 7.62244C27.0541 7.62253 26.1228 8.5538 26.1227 9.70251C26.1227 10.8513 27.054 11.7825 28.2028 11.7826C29.3516 11.7826 30.2828 10.8514 30.2828 9.70251C30.2828 8.55374 29.3515 7.62244 28.2028 7.62244Z" fill="#FBFBFB"/>
</svg>
