<svg width="38" height="38" viewBox="0 0 38 38" fill="none" xmlns="http://www.w3.org/2000/svg">
<path d="M1.90002 5.68333C1.90002 4.58663 2.28517 3.68186 3.05543 2.96904C3.82569 2.25619 4.82706 1.89978 6.05948 1.89978C7.26992 1.89978 8.24924 2.2507 8.99752 2.95259C9.76777 3.6764 10.1529 4.61953 10.1529 5.78203C10.1529 6.83484 9.7788 7.71217 9.03053 8.41406C8.26027 9.13787 7.2479 9.49978 5.99346 9.49978H5.96045C4.75001 9.49978 3.77069 9.13787 3.02242 8.41406C2.27414 7.69025 1.90002 6.78 1.90002 5.68333ZM2.32918 34.4712V12.4937H9.65775V34.4712H2.32918ZM13.7182 34.4712H21.0467V22.1993C21.0467 21.4316 21.1348 20.8394 21.3108 20.4227C21.6189 19.677 22.0866 19.0464 22.7138 18.5309C23.341 18.0155 24.1278 17.7578 25.0742 17.7578C27.539 17.7578 28.7715 19.4138 28.7715 22.7257V34.4712H36.1V21.8703C36.1 18.6242 35.3298 16.1621 33.7892 14.4842C32.2487 12.8063 30.213 11.9673 27.6821 11.9673C24.8431 11.9673 22.6313 13.1846 21.0467 15.6193V15.6851H21.0137L21.0467 15.6193V12.4937H13.7182C13.7622 13.1956 13.7842 15.378 13.7842 19.0409C13.7842 22.7038 13.7622 27.8472 13.7182 34.4712Z" fill="#FBFBFB"/>
</svg>
