<svg width="37" height="37" viewBox="0 0 37 37" fill="none" xmlns="http://www.w3.org/2000/svg">
<path d="M5.55005 13.802C5.55005 12.4037 5.84303 11.0154 6.43231 9.64037C7.02159 8.26538 7.8639 6.98693 8.96256 5.8117C10.0612 4.63646 11.5028 3.68096 13.2906 2.94852C15.0784 2.21607 17.0594 1.84985 19.2334 1.84985C22.7624 1.84985 25.6589 2.93853 27.9228 5.11255C30.1867 7.28657 31.3187 9.85011 31.3187 12.8032C31.3187 16.5986 30.3598 19.7347 28.4389 22.2084C26.5179 24.6821 24.0375 25.9206 20.9979 25.9206C19.9991 25.9206 19.0603 25.6875 18.1847 25.2214C17.3091 24.7553 16.6932 24.1893 16.3369 23.5235L15.0052 28.7837C14.8953 29.2066 14.7489 29.6327 14.5724 30.0655C14.3959 30.4983 14.1995 30.9145 13.9898 31.314C13.78 31.7135 13.567 32.0897 13.3572 32.4459C13.1475 32.8022 12.9344 33.1351 12.7246 33.4447C12.5149 33.7543 12.3318 34.0174 12.1753 34.2271C12.0188 34.4368 11.8757 34.62 11.7425 34.7764L11.5428 35.0428C11.4762 35.1327 11.3863 35.166 11.2764 35.1427C11.1665 35.1194 11.1 35.0528 11.0767 34.9429C11.0767 34.9196 11.06 34.7664 11.0267 34.4768C10.9934 34.1872 10.9601 33.8842 10.9268 33.5612C10.8935 33.2383 10.8603 32.8221 10.827 32.3128C10.7937 31.8034 10.7837 31.3073 10.7937 30.8312C10.8037 30.3551 10.8369 29.8258 10.8935 29.2498C10.9501 28.6739 11.0334 28.1412 11.1432 27.6518C11.3863 26.6097 12.2086 23.1339 13.6069 17.2311C13.4305 16.8749 13.284 16.4487 13.1741 15.9494C13.0642 15.45 13.0076 15.0438 13.0076 14.7342L12.9743 14.2348C12.9743 12.8132 13.3339 11.6313 14.0564 10.6891C14.7788 9.74691 15.6478 9.27415 16.6698 9.27415C17.4922 9.27415 18.1281 9.54715 18.5842 10.0898C19.0403 10.6325 19.2667 11.315 19.2667 12.1373C19.2667 12.6467 19.1735 13.2759 18.9837 14.0184C18.7939 14.7608 18.5442 15.6164 18.2346 16.5819C17.925 17.5474 17.7019 18.3298 17.5688 18.9291C17.3457 19.9278 17.5421 20.7935 18.1514 21.5259C18.7606 22.2583 19.5763 22.6246 20.5984 22.6246C22.3529 22.6246 23.8012 21.6324 24.9431 19.6449C26.0851 17.6573 26.6577 15.2569 26.6577 12.437C26.6577 10.2829 25.9585 8.52506 24.5602 7.16006C23.1619 5.79505 21.2077 5.11255 18.7007 5.11255C15.9041 5.11255 13.6335 6.01145 11.8923 7.80926C10.1511 9.60708 9.27884 11.7611 9.27884 14.2681C9.27884 15.7563 9.70166 17.0081 10.544 18.0302C10.8336 18.3631 10.9202 18.7193 10.8103 19.0955C10.767 19.2054 10.7004 19.4617 10.6106 19.8613C10.5207 20.2608 10.4541 20.5171 10.4108 20.627C10.3675 20.87 10.2543 21.0332 10.0779 21.1097C9.90142 21.1863 9.70166 21.183 9.4786 21.0931C8.17019 20.5604 7.18805 19.6449 6.53219 18.3464C5.87632 17.048 5.55005 15.5332 5.55005 13.802Z" fill="#FBFBFB"/>
</svg>
