<svg width="92" height="19" viewBox="0 0 92 19" fill="none" xmlns="http://www.w3.org/2000/svg">
<path d="M23.0102 15.1781C22.7723 15.1852 12.3277 16.2321 15.6622 18.2629L15.567 18.2475C15.567 18.2475 13.2231 17.6737 14.7072 16.481C16.3043 15.1983 22.7747 15.1378 22.8782 15.1461C22.921 15.1461 22.965 15.1591 23.0102 15.1793V15.1781Z" fill="#1E2846"/>
<path d="M20.3418 18.7856C20.5796 18.769 30.9779 17.325 27.5721 15.4233L27.6672 15.4352C27.6672 15.4352 30.0301 15.9201 28.5912 17.1685C27.0429 18.5117 20.5784 18.8188 20.475 18.814C20.4322 18.814 20.3882 18.8034 20.3418 18.7868V18.7856Z" fill="#1E2846"/>
<path d="M25.4411 3.70776H25.1628C24.4921 3.74096 23.3517 3.90456 22.6096 4.60523C26.1141 4.95141 28.816 7.14469 28.816 9.80033C28.8136 12.6978 25.5992 15.0452 21.6357 15.0452C17.6721 15.0452 14.4577 12.6978 14.4577 9.80033C14.4577 7.14706 17.1524 4.95615 20.651 4.60641C19.8971 3.90812 18.7447 3.74451 18.0717 3.7125H17.8219C15.6612 4.95378 14.2163 7.21463 14.2163 9.80033C14.2163 13.7198 17.5389 16.8959 21.6368 16.8959C25.7348 16.8959 29.0598 13.7174 29.0598 9.80033C29.0586 7.21226 27.6089 4.94785 25.4434 3.70776H25.4411Z" fill="#1E2846"/>
<path d="M25.7108 3.01898V3.50388H25.1614C24.1065 3.55604 21.8863 3.93186 21.8863 6.20931L21.3833 6.21169C21.3833 3.93779 19.1286 3.55841 18.0702 3.50862H17.5601V3.02373H18.1095C19.1631 2.97156 21.3833 2.59574 21.3833 0.318288L21.8863 0.315918C21.8863 2.591 24.141 2.96919 25.1994 3.01898H25.7108Z" fill="#1E2846"/>
<path d="M5.5315 4.25678C2.73334 4.25678 1.6702 5.84661 1.23377 7.15902L1.15529 7.41985H0.879395L1.91875 4.01611H11.8615L12.9033 7.41985H12.6274L12.5477 7.15902C12.1125 5.8478 11.0505 4.25678 8.24998 4.25678H7.98955V17.2066C7.98955 18.404 9.06696 18.5546 9.46058 18.57H9.60328V18.8118H4.17464V18.57H4.31734C4.70977 18.5546 5.78717 18.404 5.78717 17.2066C5.78717 12.8888 5.78955 8.57339 5.78955 4.25678H5.52912H5.5315Z" fill="#1E2846"/>
<path d="M31.9599 14.436L31.9623 5.70435C31.9599 5.67115 31.9599 5.63677 31.9599 5.6012C31.9599 4.41802 30.8956 4.26982 30.5067 4.25441H30.3652V4.01611H35.7285V4.25678H35.587C35.1969 4.27219 34.1338 4.42157 34.1338 5.60357V14.4383C34.1338 16.5368 35.7867 18.238 37.8226 18.238C39.8585 18.238 41.5103 16.5368 41.5115 14.4383H41.5079V5.78141C41.5079 4.64802 40.2843 4.45951 39.7087 4.43461H39.4304V4.19632H43.859V4.43343H43.5617C42.9885 4.45833 41.7814 4.64683 41.7814 5.78022V14.4371H41.7791C41.8231 16.845 39.6112 18.8142 36.8701 18.8142C34.129 18.8142 31.9147 16.8462 31.9587 14.4371H31.9599V14.436Z" fill="#1E2846"/>
<path d="M45.1685 4.25919V4.01615C45.7785 4.01615 52.4772 4.01497 52.4772 4.01615C54.4465 3.98651 56.0614 5.37836 56.0614 7.10453C56.0614 8.83069 54.4108 10.2534 52.413 10.1917H50.3949L56.021 17.637C56.5918 18.2452 57.4492 18.57 58.3387 18.57V18.8119H52.5367V18.57C52.5367 18.57 53.8281 18.2073 53.2407 17.0727L49.0452 10.1929H48.9846V17.2066C48.9846 18.1183 49.6196 18.57 50.5983 18.57V18.8119H45.172V18.57C46.1495 18.57 46.7846 18.1183 46.7846 17.2066V5.62258C46.7846 4.15605 45.172 4.25919 45.1708 4.25919H45.1685ZM48.9857 9.95342H51.4402C52.7793 9.95342 53.8638 8.67894 53.8638 7.10571C53.8638 5.53248 52.7424 4.20821 51.3665 4.25801H48.9857V9.95223V9.95342Z" fill="#1E2846"/>
<path d="M62.0239 17.2042C62.0239 18.3518 63.2452 18.5415 63.8267 18.5676H64.1276V18.813H59.6455V18.5711H59.9273C60.5077 18.545 61.729 18.3553 61.729 17.2077V5.62128C61.729 4.47367 60.5077 4.28398 59.9273 4.2579H59.6455V4.01604H64.0063L70.7525 18.0009C70.7525 13.8728 70.7335 9.74465 70.7335 5.61891C70.7335 4.4713 69.5122 4.28161 68.9307 4.25553H68.6488V4.01367H73.1309V4.25315H72.83C72.2473 4.27924 71.0272 4.46892 71.0272 5.61654V17.203C71.0272 18.3506 72.2485 18.5403 72.83 18.5664H73.1309V18.8058H68.7701L62.0239 4.82103V17.203V17.2042Z" fill="#1E2846"/>
<path d="M74.5831 4.25674H74.4404V4.01489H79.8691V4.25437H79.7264C79.3339 4.26979 78.2565 4.42035 78.2565 5.61776V17.2066C78.2565 18.404 79.3339 18.5545 79.7264 18.57H79.8691V18.8118H74.4404V18.57H74.5831C75.6344 18.5285 76.0316 17.976 76.0542 17.1022C76.0542 13.2753 76.0518 9.44592 76.0518 5.61776C76.0518 4.42035 74.9744 4.26979 74.5819 4.25556H74.5831V4.25674Z" fill="#1E2846"/>
<path d="M81.1779 8.19757C81.1779 5.88811 82.6692 4.01611 85.924 4.01611C86.9693 4.01611 88.0182 4.28523 88.8898 4.79384C89.7377 5.24791 90.0802 5.01672 90.0802 4.01611H90.3561V9.42225H90.0802C90.0802 9.42225 90.0041 7.63325 88.9588 6.43821C84.5743 1.65568 81.4669 6.41094 83.2495 8.57576C85.0476 10.7584 91.1184 10.9089 91.1196 14.6316C91.1196 16.941 88.8649 18.813 85.6089 18.813C84.5636 18.813 83.5147 18.5439 82.643 18.0353C81.7951 17.5812 81.4527 17.8124 81.4527 18.813H81.1768V13.4081H81.4527C81.4527 13.4081 81.5252 15.0785 82.473 16.2688C85.0678 19.1379 89.2537 19.2363 89.2537 15.4911C89.2537 11.7459 81.1779 12.8604 81.1779 8.19638V8.19757Z" fill="#1E2846"/>
</svg>
