<svg width="190" height="41" viewBox="0 0 190 41" fill="none" xmlns="http://www.w3.org/2000/svg">
<path d="M46.8552 32.4752C46.3557 32.4905 24.4187 34.7324 31.4221 39.0817L31.2223 39.0486C31.2223 39.0486 26.2994 37.8198 29.4165 35.2656C32.7709 32.5184 46.3607 32.3889 46.5779 32.4067C46.6679 32.4067 46.7603 32.4346 46.8552 32.4778V32.4752Z" fill="#FBFBFB"/>
<path d="M41.2505 40.1988C41.75 40.1633 63.5896 37.0708 56.4363 32.9983L56.6361 33.0237C56.6361 33.0237 61.5989 34.0621 58.5768 36.7357C55.3248 39.6123 41.7475 40.2699 41.5302 40.2598C41.4403 40.2598 41.3479 40.2369 41.2505 40.2014V40.1988Z" fill="#FBFBFB"/>
<path d="M51.9604 7.91064H51.376C49.9673 7.98174 47.572 8.33212 46.0135 9.83265C53.3741 10.574 59.0488 15.2712 59.0488 20.9585C59.0438 27.1637 52.2926 32.1909 43.9679 32.1909C35.6432 32.1909 28.892 27.1637 28.892 20.9585C28.892 15.2762 34.5517 10.5842 41.8998 9.8352C40.3163 8.33974 37.8961 7.98936 36.4824 7.9208H35.9579C31.4197 10.5791 28.385 15.421 28.385 20.9585C28.385 29.3523 35.3635 36.1543 43.9704 36.1543C52.5773 36.1543 59.5608 29.3473 59.5608 20.9585C59.5583 15.4159 56.5137 10.5664 51.9654 7.91064H51.9604Z" fill="#FBFBFB"/>
<path d="M52.5274 6.43548V7.47392H51.3735C49.1581 7.58563 44.4949 8.39049 44.4949 13.2679L43.4384 13.2729C43.4384 8.40319 38.7029 7.59071 36.4799 7.48408H35.4084V6.44564H36.5624C38.7753 6.33392 43.4384 5.52906 43.4384 0.651682L44.4949 0.646606C44.4949 5.51891 49.2305 6.32884 51.4534 6.43548H52.5274Z" fill="#FBFBFB"/>
<path d="M10.1446 9.08621C4.26763 9.08621 2.03472 12.491 1.11808 15.3016L0.953235 15.8602H0.373779L2.55673 8.5708H23.4397L25.6276 15.8602H25.0482L24.8808 15.3016C23.9667 12.4935 21.7363 9.08621 15.8543 9.08621H15.3073V36.8195C15.3073 39.3839 17.5702 39.7063 18.3969 39.7393H18.6966V40.2573H7.2948V39.7393H7.59451C8.41874 39.7063 10.6816 39.3839 10.6816 36.8195C10.6816 27.5725 10.6866 18.3306 10.6866 9.08621H10.1396H10.1446Z" fill="#FBFBFB"/>
<path d="M65.6526 30.8859L65.6576 12.1863C65.6526 12.1152 65.6526 12.0416 65.6526 11.9654C65.6526 9.43151 63.4172 9.11414 62.6004 9.08114H62.3032V8.5708H73.5677V9.08621H73.2705C72.4512 9.11922 70.2183 9.43913 70.2183 11.9705V30.891C70.2183 35.385 73.6901 39.0284 77.9661 39.0284C82.2421 39.0284 85.7113 35.385 85.7138 30.891H85.7063V12.3513C85.7063 9.92407 83.1362 9.52038 81.9273 9.46706H81.3429V8.95672H90.6442V9.46452H90.0198C88.8159 9.51784 86.2808 9.92154 86.2808 12.3488V30.8884H86.2758C86.3682 36.0451 81.7225 40.2623 75.9654 40.2623C70.2083 40.2623 65.5577 36.0476 65.6501 30.8884L65.6526 30.8859Z" fill="#FBFBFB"/>
<path d="M93.3942 9.0912V8.57071C94.6755 8.57071 108.745 8.56817 108.745 8.57071C112.881 8.50723 116.273 11.488 116.273 15.1847C116.273 18.8815 112.806 21.9283 108.61 21.7963H104.371L116.188 37.741C117.387 39.0435 119.188 39.7392 121.056 39.7392V40.2572H108.87V39.7392C108.87 39.7392 111.582 38.9623 110.348 36.5325L101.537 21.7988H101.409V36.8194C101.409 38.7719 102.743 39.7392 104.798 39.7392V40.2572H93.4017V39.7392C95.4547 39.7392 96.7885 38.7719 96.7885 36.8194V12.011C96.7885 8.8703 93.4017 9.0912 93.3992 9.0912H93.3942ZM101.412 21.2859H106.567C109.379 21.2859 111.657 18.5565 111.657 15.1873C111.657 11.8181 109.302 8.98203 106.412 9.08866H101.412V21.2834V21.2859Z" fill="#FBFBFB"/>
<path d="M128.796 36.8144C128.796 39.2721 131.361 39.6783 132.582 39.7342H133.214V40.2598H123.801V39.7418H124.393C125.611 39.6859 128.177 39.2797 128.177 36.822V12.0085C128.177 9.5508 125.611 9.14456 124.393 9.0887H123.801V8.57075H132.96L147.129 38.5206C147.129 29.6798 147.089 20.8391 147.089 12.0034C147.089 9.54571 144.524 9.13948 143.302 9.08362H142.71V8.56567H152.124V9.07854H151.492C150.268 9.1344 147.706 9.54064 147.706 11.9984V36.8118C147.706 39.2696 150.271 39.6758 151.492 39.7316H152.124V40.2445H142.965L128.796 10.2947V36.8118V36.8144Z" fill="#FBFBFB"/>
<path d="M155.174 9.08619H154.874V8.56824H166.276V9.08112H165.976C165.152 9.11412 162.889 9.43657 162.889 12.0009V36.8195C162.889 39.3838 165.152 39.7063 165.976 39.7393H166.276V40.2572H154.874V39.7393H155.174C157.382 39.6504 158.216 38.4673 158.263 36.596C158.263 28.4002 158.258 20.1993 158.258 12.0009C158.258 9.43657 155.995 9.11412 155.171 9.08365L155.174 9.08619Z" fill="#FBFBFB"/>
<path d="M169.026 17.5232C169.026 12.5773 172.158 8.56824 178.994 8.56824C181.189 8.56824 183.392 9.14459 185.223 10.2338C187.004 11.2062 187.723 10.7111 187.723 8.56824H188.303V20.146H187.723C187.723 20.146 187.563 16.3147 185.368 13.7554C176.159 3.51313 169.633 13.697 173.377 18.3332C177.153 23.0074 189.904 23.3299 189.906 31.3023C189.906 36.2482 185.171 40.2572 178.332 40.2572C176.137 40.2572 173.934 39.6809 172.103 38.5917C170.322 37.6192 169.603 38.1143 169.603 40.2572H169.023V28.682H169.603C169.603 28.682 169.755 32.2595 171.746 34.8086C177.196 40.9529 185.987 41.1637 185.987 33.143C185.987 25.1224 169.026 27.509 169.026 17.5207V17.5232Z" fill="#FBFBFB"/>
</svg>
